<?xml version="1.0" encoding="UTF-8" standalone="no"?><!DOCTYPE svg PUBLIC "-//W3C//DTD SVG 1.1//EN" "http://www.w3.org/Graphics/SVG/1.1/DTD/svg11.dtd"><svg width="100%" height="100%" viewBox="0 0 400 335" version="1.1" xmlns="http://www.w3.org/2000/svg" xmlns:xlink="http://www.w3.org/1999/xlink" xml:space="preserve" xmlns:serif="http://www.serif.com/" style="fill-rule:evenodd;clip-rule:evenodd;stroke-linejoin:round;stroke-miterlimit:2;"><g id="Layer-1" serif:id="Layer 1"><path d="M289.482,209.968l-63.047,42.908l-0,-14.748c-13.076,-0 -25.734,4.612 -35.745,13.025l-10.474,8.8c-6.242,-13.526 -19.926,-22.941 -35.777,-22.941l-75.919,-0l17.453,-7.694l31.332,-13.813l47.682,-21.019l-96.35,-0l15.665,-5.173l83.989,-27.737c1.631,-0.539 3.269,-1.054 4.906,-1.566c15.727,-4.265 22.93,-6.25 22.93,-6.25c-0,-0 1.161,-9.63 10.171,-23.617c14.548,-25.776 39.29,-49.749 66.226,-64.331l48.502,-8.286l9.342,17.939c14.511,-0 36.115,5.021 43.956,25.468l-59.316,-0.001l1.754,28.19c1.152,30.84 1.454,61.291 -27.28,80.846m-84.066,94.516l-10.795,10.796l-10.797,-10.795l-0,-20.109l21.592,-18.143l-0,38.251Zm92.017,-285.564c9.346,0 16.828,7.225 21.063,19.844l-48.088,8.215c3.371,-17.729 15.511,-28.059 27.025,-28.059m39.498,101.29l63.069,-0c-0,-36.738 -32.907,-61.522 -58.421,-65.35l-0.352,-0.671l23.265,-1.794c5.259,-0.406 9.189,-5.003 8.772,-10.26c-0.414,-5.242 -4.995,-9.158 -10.237,-8.753l-25.794,1.988c-7.27,-24.49 -23.396,-35.37 -39.8,-35.37c-22.608,-0 -45.7,20.604 -46.802,54.498c-10,6.416 -19.715,13.981 -28.823,22.599c-18.965,17.943 -33.261,38.491 -41.622,58.994c-6.202,1.67 -12.366,3.506 -18.487,5.526l-83.989,27.737l-77.71,25.662l6.055,20.489l59.146,-0l-52.327,23.067l5.753,19.459l125.812,-0c10.127,-0 18.366,8.24 18.366,18.367l-0,28.087l-29.89,29.892l29.723,-0l10.677,-10.677l6.442,6.441l4.235,4.236l21.257,0l10.677,-10.677l10.677,10.677l29.724,0l-29.892,-29.892l-0,-26.185l74.874,-50.957c1.881,-1.278 3.626,-2.671 5.305,-4.113l0.036,0.027c23.268,-16.285 33.867,-46.853 32.072,-75.256l-1.791,-27.791Z" style="fill:#13a751;fill-rule:nonzero;"/></g></svg>