<?xml version="1.0" encoding="UTF-8"?>
<svg id="Layer_2" xmlns="http://www.w3.org/2000/svg" viewBox="0 0 400 334.38">
    <g id="Layer_1-2">
        <path d="m336.93,120.21h63.07c0-36.74-32.91-61.52-58.42-65.35l-.35-.67,23.26-1.79c5.26-.41,9.19-5.01,8.77-10.26-.41-5.25-4.99-9.16-10.23-8.76l-25.8,1.99c-7.27-24.49-23.39-35.37-39.8-35.37-22.6,0-45.7,20.61-46.8,54.5-10,6.42-19.71,13.98-28.82,22.6-18.97,17.94-33.26,38.49-41.62,58.99-6.21,1.67-12.37,3.51-18.49,5.53l-83.99,27.73L0,195.02l6.05,20.49h59.15l-52.33,23.06,5.76,19.46h125.81c10.13,0,18.37,8.24,18.37,18.37v28.09l-29.9,29.89h29.73l10.68-10.68,6.44,6.44,4.23,4.24h21.26l4.23-4.24,6.45-6.44,10.67,10.68h29.73l-29.89-29.89v-26.19l74.87-50.96c1.88-1.27,3.62-2.67,5.3-4.11l.04.03c23.27-16.29,33.87-46.86,32.07-75.26l-1.79-27.79Zm-131.51,184.28l-10.8,10.79-10.8-10.79v-20.11l21.6-18.15v38.26Z"
              style="stroke-width:0px;"/>
        <path d="m297.43,18.92c9.35,0,16.83,7.23,21.06,19.84l-48.09,8.22c3.37-17.73,15.51-28.06,27.03-28.06Z"
              style="stroke-width:0px;"/>
        <polygon points="205.42 266.23 205.42 304.49 194.62 315.28 183.82 304.49 183.82 284.38 205.42 266.23"
                 style="fill:none; stroke-width:0px;"/>
        <path d="m289.48,209.97l-63.05,42.91v-14.75c-13.08,0-25.73,4.61-35.75,13.02l-10.47,8.8c-6.24-13.53-19.93-22.94-35.78-22.94h-75.92l17.45-7.69,31.33-13.81,47.68-21.02h-96.35l15.67-5.17,83.99-27.74c1.63-.54,3.27-1.05,4.91-1.57,15.73-4.27,22.93-6.25,22.93-6.25,0,0,1.16-9.63,10.17-23.62,14.55-25.78,39.29-49.75,66.23-64.33l48.5-8.29,9.34,17.94c14.51,0,36.12,5.02,43.96,25.47h-59.32s1.75,28.19,1.75,28.19c1.15,30.84,1.45,61.29-27.28,80.85Z"
              style="fill:#fff; stroke-width:0px;"/>
        <path d="m270.41,46.98l48.09-8.22c-4.23-12.62-11.72-19.84-21.06-19.84-11.51,0-23.65,10.33-27.03,28.06Z"
              style="fill:#0ba750; stroke-width:0px;"/>
    </g>
</svg>
